<?xml version="1.0" encoding="UTF-8"?> <!-- Generator: Adobe Illustrator 24.2.0, SVG Export Plug-In . SVG Version: 6.00 Build 0) --> <svg xmlns="http://www.w3.org/2000/svg" xmlns:xlink="http://www.w3.org/1999/xlink" version="1.1" x="0px" y="0px" viewBox="0 0 350 70" style="enable-background:new 0 0 350 70;" xml:space="preserve"> <style type="text/css"> .st0{display:none;} .st1{fill:#333333;} .st2{fill:#B7142E;} </style> <g id="Layer_1" class="st0"> <image style="display:inline;overflow:visible;opacity:0.16;" width="250" height="60" transform="matrix(1.3748 0 0 1.3748 2.5232 -7.0397)"> </image> </g> <g id="Layer_2"> <g> <path class="st1" d="M4.7,11.7h4.5v41.9H4.7V11.7z"></path> <path class="st1" d="M21.1,28.1h4.3l-0.1,5.2c1.7-3.6,5.1-5.8,9.2-5.8c5.7,0,9.6,3.9,9.6,10.5v15.5h-4.3v-15 c0-4.5-2.1-7.1-6.4-7.1c-4.7,0-8,3-8,8.1v14.1h-4.3V28.1z"></path> <path class="st1" d="M52.4,48.2l3.3-1.9c1.5,2.5,3.7,4.3,7.4,4.3c3.5,0,5.4-1.5,5.4-3.8c0-2.8-2.2-3.4-6.7-4.7 c-4-1.2-7.7-2.8-7.7-7.6c0-4.4,3.7-7,8.4-7c3.9,0,6.7,1.6,8.5,4.1l-3,2.3c-1.3-1.8-3.1-2.9-5.6-2.9c-2.8,0-4.4,1.3-4.4,3.3 c0,2.4,1.5,3.1,6,4.4c4.3,1.2,8.4,2.9,8.4,7.8c0,4.3-2.9,7.6-9.3,7.6C57.7,54.2,54.1,51.5,52.4,48.2z"></path> <path class="st1" d="M81,17.7c0-1.8,1.5-3.1,3.1-3.1s3.1,1.3,3.1,3.1s-1.5,3-3.1,3S81,19.5,81,17.7z M81.9,28.1h4.3v25.5h-4.3 V28.1z"></path> <path class="st1" d="M95.7,40.8c0-7.6,5.4-13.3,12.3-13.3c4.9,0,8,2.4,9.8,5.8V9.1h4.3v44.5h-4.3l0.1-5.5c-1.7,3.5-5.3,6-9.9,6 C101.1,54.2,95.7,48.5,95.7,40.8z M118,40.8c0-5.5-3.6-9.4-9.1-9.4c-5.4,0-8.8,3.9-8.8,9.4c0,5.6,3.5,9.6,8.8,9.6 C114.4,50.4,118,46.4,118,40.8z"></path> <path class="st1" d="M145.3,50.5c3.8,0,6.4-1.5,8.1-3.4l2.7,2.6c-2.3,2.7-5.7,4.4-10.7,4.4c-8.4,0-13.8-5.8-13.8-13.3 c0-7.5,5.7-13.3,13.2-13.3c8.2,0,13.1,6.3,12.8,14.7h-21.7C136.3,47.2,139.7,50.5,145.3,50.5z M153.2,39.1 c-0.4-4.4-3.1-7.8-8.5-7.8c-4.9,0-8.1,3.1-8.8,7.8H153.2z"></path> </g> <g> <path class="st2" d="M198.9,54.7v9.8h-34.4V7.1h34V17h-23.5v11.5h21.5v9.7h-21.5v16.6H198.9z"></path> <path class="st2" d="M270.9,64.5h-9.7l-13-40.2H248l-13,40.2h-9.7L207.1,7.1h12l11.1,40.6h0.2l12.9-40.6h9.8l13,40.6h0.2 l11.1-40.6h12L270.9,64.5z"></path> <path class="st2" d="M346.2,41.9c0,4.8-0.9,9-2.8,12.6c-1.9,3.6-4.6,6.3-8.1,8.3c-3.6,1.9-7.8,2.9-12.7,2.9 c-7.5,0-13.3-2.1-17.5-6.4c-4.2-4.3-6.2-10.1-6.2-17.4V7.1h11.1v34.1c0,4.2,1.1,7.5,3.4,9.9c2.3,2.5,5.4,3.7,9.2,3.7 c3.8,0,6.9-1.2,9.1-3.7c2.3-2.5,3.4-5.8,3.4-9.9V7.1h11.1V41.9z"></path> </g> <g> <rect x="4.7" y="60.5" class="st2" width="152.8" height="4"></rect> </g> </g> </svg> 